<?xml version="1.0" encoding="UTF-8"?>
<svg width="132px" height="19px" viewBox="0 0 132 19" version="1.1" xmlns="http://www.w3.org/2000/svg" xmlns:xlink="http://www.w3.org/1999/xlink">
    <title>Group 2</title>
    <g id="Page-1" stroke="none" stroke-width="1" fill="none" fill-rule="evenodd">
        <g id="Group-2" fill="#3A3A3A">
            <path d="M125.686302,4.11112356 C127.639274,4.11112356 129.553398,4.46626011 131.042648,5.7571911 L131.167926,5.86686571 C131.229593,5.92336471 131.304858,5.9983801 131.368953,6.06342517 C131.427222,6.12134852 131.479178,6.17515714 131.524822,6.22485103 C131.348559,6.4081167 131.177152,6.50924498 131.015942,6.55672314 C130.837252,6.61037345 130.670215,6.59470564 130.529399,6.55292487 C130.338084,6.49531804 130.179787,6.39925393 130.054509,6.26473253 C129.012471,5.27861129 127.714538,4.92252517 126.283071,4.92252517 C123.240962,4.92252517 121.281192,6.61891982 121.281192,9.4828019 C121.281192,12.0114883 122.812687,13.4989786 125.390589,13.7430163 C125.637745,13.7809988 125.902868,13.8023643 126.194697,13.8023643 C126.644337,13.8023643 127.092519,13.7510875 127.529049,13.6623034 C128.109793,13.5554775 128.659461,13.3726871 129.167369,13.1020617 C129.925833,12.7274591 130.575528,12.2199174 131.023711,11.6193188 L132.000682,12.0124379 C130.500264,14.1128713 127.961208,14.7471797 125.567823,14.7471797 C121.456484,14.7471797 118.056993,12.6671615 118.056993,9.42250448 C118.056993,6.31553416 121.456484,4.11112356 125.686302,4.11112356 Z M54.3186054,4.11112356 C56.27109,4.11112356 58.1852147,4.46626011 59.6749492,5.7571911 L59.8002267,5.86686571 C59.8623799,5.92336471 59.9371578,5.9983801 60.0012533,6.06342517 C60.0591982,6.12134852 60.1108307,6.17515714 60.1561509,6.22485103 C59.9808594,6.4081167 59.8089671,6.50924498 59.6477573,6.55672314 C59.4690668,6.61037345 59.3025155,6.59470564 59.161214,6.55292487 C58.9702224,6.49531804 58.8120879,6.39925393 58.6868105,6.26473253 C57.6442877,5.27861129 56.3458676,4.92252517 54.9144016,4.92252517 C51.8713226,4.92252517 49.9120403,6.61891982 49.9120403,9.4828019 C49.9120403,12.0114883 51.4445054,13.4989786 54.0224067,13.7430163 C54.2695628,13.7809988 54.5351706,13.8023643 54.8260281,13.8023643 C55.2751821,13.8023643 55.7243356,13.7510875 56.1613503,13.6623034 C56.7406375,13.5554775 57.2907912,13.3726871 57.7986995,13.1020617 C58.5581339,12.7274591 59.2083139,12.2199174 59.6560112,11.6193188 L60.6329825,12.0124379 C59.1870881,14.0378559 56.7740643,14.7000019 54.4558089,14.7447146 L54.1986689,14.7471797 C50.0887886,14.7471797 46.6888142,12.6671615 46.6888142,9.42250448 C46.6888142,6.31553416 50.0887886,4.11112356 54.3186054,4.11112356 Z M67.4798602,4.01013383 L74.2171736,14.5735481 L70.9886046,14.5735481 L69.0268927,11.3573786 L64.9655675,11.3573786 L65.3681065,10.6599241 C65.4506538,10.5398044 65.5900132,10.4619404 65.7492808,10.4619404 L68.4757685,10.4600412 L66.7466459,7.61467538 L62.5537306,14.5735481 L61.0062122,14.5735481 L67.4798602,4.01013383 Z M116.368679,4.28785558 L116.368679,5.18899089 L110.249986,5.18899089 L110.249986,8.63922829 L115.96177,8.63922829 L115.96177,9.53181725 L110.249986,9.53181725 L110.249986,13.6742862 L116.368679,13.6742862 L116.368679,14.5730478 L107.238469,14.5730478 L107.238469,4.28927993 L116.368679,4.28785558 Z M104.013515,4.28785558 L105.283285,4.28927993 L105.283285,5.18899089 L101.237988,5.18899089 L101.237988,14.5730478 L98.2502651,14.5730478 L98.2502651,5.18899089 L94.2044817,5.19278916 L94.2059385,4.28927993 L104.013515,4.28785558 Z M82.9413626,4.28785558 C85.251902,4.28785558 86.9285199,5.56976554 87.0342844,7.16885051 L87.03959,7.32978053 C87.03959,9.00386001 85.32892,10.4457716 82.9413626,10.4457716 L79.4651529,10.4457716 L79.4651529,9.99425436 C79.4651529,9.74404451 79.6744344,9.53988843 79.9288741,9.53988843 L81.5103822,9.53988843 C82.8811519,9.53988843 84.0028232,8.55804014 84.0028232,7.36396473 C84.0028232,6.16846501 82.8811519,5.18756652 81.5103822,5.18756652 L79.0179412,5.18756652 L79.0179412,14.5716229 L76.0073949,14.5716229 L76.0073949,4.28785558 L82.9413626,4.28785558 Z M92.2560102,4.28364768 L92.2560102,14.5569703 L89.2265297,14.5569703 L89.2265297,4.28364768 L92.2560102,4.28364768 Z" id="Fill-1"></path>
            <path d="M13.4526735,0.00420790538 L13.4526735,5.50122858 C13.4526735,7.46350071 15.0953639,9.05781726 17.1027187,9.05781726 L24.1100092,9.05781726 C26.6194457,9.05781726 28.6719589,11.1952831 28.6719589,13.6489541 L28.6719589,18.8440132 C33.5335061,18.0582498 37.2559005,14.0572669 37.2559005,9.43241975 C37.2559005,4.24685598 32.5745014,0.00420790538 26.8544625,0.00420790538 L13.4526735,0.00420790538 Z" id="Fill-3"></path>
            <path d="M14.323891,9.73254697 C11.8144544,9.73254697 9.76194117,7.75650575 9.76194117,5.30236002 L9.76194117,0 C4.33664418,0.301486256 0,4.4187919 0,9.40969549 C0,14.5952592 4.68091444,18.8388561 10.4019246,18.8388561 L24.9593757,18.8388561 L24.9593757,13.301954 C24.9593757,11.3387324 23.3171701,9.73254697 21.3093296,9.73254697 L14.323891,9.73254697 Z" id="Fill-5"></path>
        </g>
    </g>
</svg>