<svg width="38" height="19" viewBox="0 0 38 19" fill="none" xmlns="http://www.w3.org/2000/svg">
<path fill-rule="evenodd" clip-rule="evenodd" d="M13.4922 0.00390625V5.51745C13.4922 7.48562 15.1398 9.08473 17.1532 9.08473H24.1816C26.6985 9.08473 28.7572 11.2286 28.7572 13.6897V18.9003C33.6334 18.1122 37.367 14.0992 37.367 9.46046C37.367 4.25931 32.6715 0.00390625 26.9343 0.00390625H13.4922Z" fill="#E63934"/>
<path fill-rule="evenodd" clip-rule="evenodd" d="M14.367 9.7618C11.85 9.7618 9.79129 7.77982 9.79129 5.3183V0C4.34968 0.302393 0 4.43208 0 9.43798C0 14.6391 4.69499 18.8955 10.4332 18.8955H25.0344V13.3419C25.0344 11.3728 23.3873 9.7618 21.3734 9.7618H14.367Z" fill="#00486D"/>
</svg>
